<svg xmlns="http://www.w3.org/2000/svg" version="1.1" xmlns:xlink="http://www.w3.org/1999/xlink" xmlns:svgjs="http://svgjs.dev/svgjs" width="1500" height="537" viewBox="0 0 1500 537"><g transform="matrix(1,0,0,1,-0.9090909090909918,-1.8286463015763275)"><svg viewBox="0 0 396 142" data-background-color="#4f2730" preserveAspectRatio="xMidYMid meet" height="537" width="1500" xmlns="http://www.w3.org/2000/svg" xmlns:xlink="http://www.w3.org/1999/xlink"><g id="tight-bounds" transform="matrix(1,0,0,1,0.2400000000000091,0.48355265330323505)"><svg viewBox="0 0 395.52 141.03289469339353" height="141.03289469339353" width="395.52"><g><svg viewBox="0 0 675.8053226968838 240.97588215297444" height="141.03289469339353" width="395.52"><g transform="matrix(1,0,0,1,280.2853226968838,87.18558035882906)"><svg viewBox="0 0 395.52 66.60472143531632" height="66.60472143531632" width="395.52"><g id="textblocktransform"><svg viewBox="0 0 395.52 66.60472143531632" height="66.60472143531632" width="395.52" id="textblock"><g><svg viewBox="0 0 395.52 66.60472143531632" height="66.60472143531632" width="395.52"><g transform="matrix(1,0,0,1,0,0)"><svg width="395.52" viewBox="2.05 -25.35 160.08999999999997 26.75" height="66.60472143531632" data-palette-color="#ffdbe7"><g class="wordmark-text-0" data-fill-palette-color="primary" id="text-0"><path d="M14.3 0.45Q8.65 0.45 5.35-2.8 2.05-6.05 2.05-11.65L2.05-11.65Q2.05-15.6 3.88-18.73 5.7-21.85 8.97-23.6 12.25-25.35 16.4-25.35L16.4-25.35Q17.9-25.35 19.53-25.15 21.15-24.95 22.28-24.7 23.4-24.45 23.7-24.4L23.7-24.4 23.9-24.1Q23.85-23.85 23.65-22.93 23.45-22 23.2-20.5 22.95-19 22.85-17.3L22.85-17.3 20.35-17.15Q20.35-17.3 20.4-17.85 20.45-18.4 20.45-19.1L20.45-19.1Q20.45-22.6 14.85-22.6L14.85-22.6Q10.95-22.6 8.7-20.03 6.45-17.45 6.45-12.95L6.45-12.95Q6.45-7.95 8.83-5 11.2-2.05 15.2-2.05L15.2-2.05Q17.85-2.05 19.43-3.48 21-4.9 21.7-7.95L21.7-7.95 24.2-8.15Q24.05-7.55 23.68-5.45 23.3-3.35 23.15-1.5L23.15-1.5 22.85-1.1Q22.55-1 21.43-0.63 20.3-0.25 18.4 0.1 16.5 0.45 14.3 0.45L14.3 0.45ZM29.35 0.45L29.6-1.6Q31.45-1.95 32.1-2.63 32.75-3.3 32.75-4.95L32.75-4.95 32.8-20.85Q32.8-22.1 32.5-22.53 32.2-22.95 31.3-22.95L31.3-22.95 29.95-22.9 29.8-23.1 30.1-25Q30.6-25 31.97-24.95 33.35-24.9 34.75-24.9L34.75-24.9Q35.9-24.9 37.5-25.05 39.1-25.2 39.6-25.25L39.6-25.25 39.4-23.2Q38.2-23 37.7-22.73 37.2-22.45 37.02-21.88 36.85-21.3 36.75-19.9L36.75-19.9 36.5-13.85 43-13.8Q45.65-13.8 48.75-14.15L48.75-14.15 48.8-20.85Q48.8-22.1 48.5-22.53 48.2-22.95 47.3-22.95L47.3-22.95 45.9-22.9 45.8-23.1 46.1-25Q46.55-24.95 47.85-24.93 49.15-24.9 50.4-24.9L50.4-24.9Q51.6-24.9 53.32-25.05 55.05-25.2 55.6-25.25L55.6-25.25 55.45-23.2Q53.9-23 53.4-22.58 52.9-22.15 52.85-21L52.85-21Q52.65-17.05 52.47-12.18 52.3-7.3 52.3-4.65L52.3-4.65Q52.3-3.05 52.65-2.53 53-2 54.05-2L54.05-2Q54.65-2 55.15-2.05 55.65-2.1 55.8-2.1L55.8-2.1 55.95-1.9 55.55 0.1Q55 0.1 53.47 0.05 51.95 0 50.3 0L50.3 0 45.3 0.05 45.7-1.95Q47-1.95 47.62-2.27 48.25-2.6 48.5-3.43 48.75-4.25 48.75-5.9L48.75-5.9 48.75-11.5 43-11.55Q42.2-11.55 39.75-11.38 37.3-11.2 36.45-11.15L36.45-11.15 36.3-4.65Q36.3-3.05 36.65-2.5 37-1.95 38.05-1.95L38.05-1.95Q38.65-1.95 39.15-2 39.65-2.05 39.8-2.1L39.8-2.1 39.9-1.9 39.55 0.1Q39.15 0.1 38.02 0.05 36.9 0 35.65 0L35.65 0Q33.8 0 31.6 0.15 29.4 0.3 29.35 0.45L29.35 0.45ZM61.3 0.4L61.55-1.7Q63.4-1.9 64.05-2.6 64.7-3.3 64.7-5L64.7-5 64.75-20.85Q64.75-22.1 64.45-22.53 64.15-22.95 63.25-22.95L63.25-22.95 61.9-22.9 61.8-23.1 62.1-25Q62.7-25 64.45-24.95 66.2-24.9 68.25-24.9L68.25-24.9Q76.59-24.9 80.59-25.35L80.59-25.35 80.75-25.1Q80.65-24.55 80.3-22.6 79.95-20.65 79.8-18.4L79.8-18.4 77.4-18.2Q77.4-18.4 77.45-18.88 77.5-19.35 77.5-19.85L77.5-19.85Q77.5-21.15 77.12-21.68 76.75-22.2 75.57-22.38 74.4-22.55 71.5-22.55L71.5-22.55Q70.15-22.55 69.65-22.48 69.15-22.4 69-22.13 68.84-21.85 68.8-21.1L68.8-21.1 68.5-14 72.59-13.95Q73.5-13.95 75.25-14.13 77-14.3 77.55-14.35L77.55-14.35 77.75-14.1 77.15-11.5Q76.59-11.5 74.97-11.55 73.34-11.6 71.55-11.6L71.55-11.6Q70.15-11.6 68.4-11.35L68.4-11.35Q68.25-7.55 68.25-4.5L68.25-4.5Q68.25-3.35 68.42-2.9 68.59-2.45 69.22-2.3 69.84-2.15 71.3-2.15L71.3-2.15Q74.55-2.15 75.95-2.45 77.34-2.75 77.92-3.68 78.5-4.6 78.84-6.85L78.84-6.85 81.05-7.05 81.25-6.8Q81.09-6.25 80.72-4.23 80.34-2.2 80.15 0L80.15 0 79.84 0.25Q78.5 0.2 74.25 0.1 70 0 67.34 0L67.34 0Q65.3 0 63.55 0.18 61.8 0.35 61.3 0.4L61.3 0.4ZM89.49 0.2L89.84-1.8Q91.84-1.95 92.67-2.3 93.49-2.65 93.72-3.48 93.94-4.3 93.94-6.35L93.94-6.35 93.94-22.9Q90.79-22.8 89.69-22.55 88.59-22.3 88.07-21.38 87.54-20.45 87.19-17.9L87.19-17.9 84.84-17.75Q84.94-18.4 85.17-20.63 85.39-22.85 85.44-25L85.44-25 85.84-25.35 89.39-24.95 102.14-24.95 105.79-25.35 106.19-25Q106.24-22.8 106.44-20.65 106.64-18.5 106.74-17.9L106.74-17.9 104.44-17.75Q104.04-20.35 103.52-21.33 102.99-22.3 101.97-22.55 100.94-22.8 98.04-22.9L98.04-22.9Q97.79-20.5 97.59-14.93 97.39-9.35 97.39-4.65L97.39-4.65Q97.39-3.2 97.94-2.6 98.49-2 99.74-2L99.74-2Q100.64-2 101.22-2.05 101.79-2.1 101.94-2.1L101.94-2.1 102.09-1.95 101.74 0.15Q101.04 0.15 99.14 0.08 97.24 0 95.44 0L95.44 0Q93.64 0 91.89 0.08 90.14 0.15 89.49 0.2L89.49 0.2ZM121.89 0.35L121.74 0.1 121.89-1.7Q123.99-1.85 124.72-2.15 125.44-2.45 125.44-3.15L125.44-3.15Q125.44-3.95 125.09-4.85L125.09-4.85 123.89-8.7Q122.89-8.75 119.74-8.75L119.74-8.75Q118.29-8.75 115.44-8.45L115.44-8.45 114.04-4.75Q113.69-3.6 113.69-3.35L113.69-3.35Q113.69-2.55 114.24-2.2 114.79-1.85 116.04-1.85L116.04-1.85 118.19-1.85 118.34-1.65 118.04 0.25Q117.54 0.2 115.77 0.1 113.99 0 112.29 0L112.29 0Q110.69 0 109.42 0.05 108.14 0.1 107.69 0.1L107.69 0.1 107.99-1.95Q109.09-2.1 109.74-2.73 110.39-3.35 111.04-4.85L111.04-4.85 118.89-24.7 122.44-25.35 122.79-25.3Q122.79-25.1 125.07-17.4 127.34-9.7 129.14-4.65L129.14-4.65Q129.64-3.2 130.42-2.63 131.19-2.05 132.89-1.9L132.89-1.9 132.99-1.7 132.74 0.1Q132.24 0.1 130.89 0.05 129.54 0 128.19 0L128.19 0Q126.14 0 124.29 0.15 122.44 0.3 121.89 0.35L121.89 0.35ZM116.24-10.8L119.64-10.8Q121.39-10.8 123.29-11L123.29-11 120.24-20.7 119.89-20.7 116.24-10.8ZM156.29-6.8L156.24-21.25Q156.24-22.9 154.89-22.9L154.89-22.9 153.39-22.9 153.29-23.1 153.64-25.05Q154.09-25 155.34-24.95 156.59-24.9 157.89-24.9L157.89-24.9Q158.99-24.9 160.36-25.03 161.74-25.15 162.14-25.2L162.14-25.2 161.94-23.15Q160.49-22.95 159.86-22.38 159.24-21.8 159.19-20.65L159.19-20.65 158.59 0.85 156.64 1.4Q151.89-5.55 147.04-12.2 142.19-18.85 142.19-18.75L142.19-18.75 141.94-18.75 141.79-3.6Q141.79-2.65 142.09-2.3 142.39-1.95 143.09-1.95L143.09-1.95 145.09-2 145.24-1.85 144.84 0.15Q144.39 0.1 143.06 0.05 141.74 0 140.29 0L140.29 0Q139.14 0 137.84 0.13 136.54 0.25 136.14 0.3L136.14 0.3 136.39-1.75Q137.64-1.9 138.24-2.48 138.84-3.05 138.89-4.2L138.89-4.2 139.44-20.7Q139.44-21.95 138.71-22.43 137.99-22.9 135.94-23.15L135.94-23.15 135.74-23.4 136.09-25.1Q136.49-25.05 137.61-24.98 138.74-24.9 139.89-24.9L139.89-24.9Q140.99-24.9 141.84-24.95 142.69-25 142.94-25.05L142.94-25.05Q146.99-19.1 151.51-12.9 156.04-6.7 156.04-6.8L156.04-6.8 156.29-6.8Z" fill="#ffdbe7" data-fill-palette-color="primary"></path></g></svg></g></svg></g></svg></g></svg></g><g><svg viewBox="0 0 240.97588215297444 240.97588215297444" height="240.97588215297444" width="240.97588215297444"><g><svg viewBox="0 0 240.97588215297444 240.97588215297444" height="240.97588215297444" width="240.97588215297444"><g transform="matrix(1,0,0,1,63.6893809522277,74.80672084108666)"><svg viewBox="0 0 113.59712024851903 91.36244047080112" height="91.36244047080112" width="113.59712024851903"><g><svg xmlns="http://www.w3.org/2000/svg" xmlns:xlink="http://www.w3.org/1999/xlink" version="1.1" x="0" y="0" viewBox="0 9.786 100.00034525290005 80.42699999999999" enable-background="new 0 0 100 100" xml:space="preserve" id="dxe-0" width="113.59712024851903" height="91.36244047080112" class="icon-dxe-0" data-fill-palette-color="accent"><path d="M49.942 52.994L90.595 51.529C88.068 47.352 87.436 43.698 82.606 43.068 75.377 42.128 68.148 41.185 60.918 40.242L18.843 34.762C20.101 36.792 39.724 53.361 49.942 52.994" fill="#fea498" data-fill-palette-color="accent"></path><path d="M0 9.786C4.391 17.043 26.615 32.858 32.953 33.672 50.283 35.903 67.61 38.132 84.939 40.36 81.546 34.753 80.759 31.01 74.627 29.401L47.91 22.378C31.94 18.182 15.97 13.984 0 9.786" fill="#fea498" data-fill-palette-color="accent"></path><path d="M63.108 66.207L94.349 59.547C92.321 56.201 92.315 54.188 88.522 54.358 82.364 54.631 76.208 54.907 70.051 55.18 58.708 55.686 47.365 56.194 36.023 56.698 37.298 58.064 54.94 67.947 63.108 66.207" fill="#fea498" data-fill-palette-color="accent"></path><path d="M87.682 90.213C93.407 86.494 94.944 82.492 98.201 76.406 101.852 69.582 99.458 68.562 95.38 61.81 94.963 61.122 89.538 62.042 88.927 62.714 88.182 63.532 88.679 68.169 88.633 69.21z" fill="#fea498" data-fill-palette-color="accent"></path><path d="M86.35 63.447C82.555 64.256 77.746 63.638 76.778 67.676L72.658 84.887C81.904 82.678 86.028 71.582 86.35 63.447" fill="#fea498" data-fill-palette-color="accent"></path><path d="M74.666 66.121C65.518 68.074 65.71 70.732 61.787 79.301 68.007 78.711 73.811 71.941 74.666 66.121" fill="#fea498" data-fill-palette-color="accent"></path></svg></g></svg></g><g id="text-0"><path d="M19.881 86.053c-0.707 2.156-1.886 3.659-3.537 4.511-1.653 0.858-3.551 0.936-5.693 0.234v0c-1.507-0.494-2.742-1.288-3.704-2.38-0.965-1.086-1.576-2.364-1.834-3.835-0.253-1.462-0.12-2.986 0.4-4.571v0c0.189-0.577 0.421-1.161 0.695-1.753 0.283-0.597 0.54-1.093 0.771-1.489 0.24-0.4 0.388-0.653 0.444-0.758v0l0.206-0.063c0.092 0.052 0.302 0.175 0.63 0.37 0.33 0.188 0.764 0.425 1.302 0.71 0.54 0.279 1.128 0.544 1.764 0.796v0l-0.383 1.464c-0.059-0.019-0.19-0.073-0.393-0.162-0.203-0.088-0.436-0.176-0.698-0.261v0c-1.337-0.438-2.355 0.41-3.056 2.546v0c-0.488 1.487-0.381 2.821 0.32 4.002 0.701 1.181 1.91 2.053 3.627 2.616v0c1.907 0.625 3.572 0.671 4.996 0.136 1.424-0.535 2.386-1.565 2.886-3.092v0c0.333-1.016 0.326-1.911-0.023-2.685-0.346-0.781-1.058-1.497-2.136-2.148v0l0.349-1.464c0.212 0.128 0.698 0.396 1.457 0.804 0.752 0.406 1.472 0.755 2.16 1.046v0l0.171 0.241c0.001 0.131 0.003 0.433 0.008 0.906-0.004 0.478-0.056 1.099-0.155 1.866-0.108 0.77-0.299 1.575-0.573 2.413z" fill="#fea498" data-fill-palette-color="accent"></path><path d="M43.3 47.536l-0.725-1.006c0.446-0.613 0.671-1.105 0.675-1.476 0.009-0.375-0.213-0.805-0.664-1.29v0l-6.503-7.032c-0.343-0.368-0.616-0.576-0.82-0.622-0.208-0.042-0.444 0.06-0.706 0.304v0l-0.577 0.579-0.146-0.019-0.646-0.968c0.146-0.136 0.428-0.385 0.847-0.745 0.418-0.361 0.834-0.734 1.247-1.119v0c0.338-0.315 0.721-0.713 1.148-1.196 0.427-0.482 0.707-0.799 0.839-0.95v0l0.763 0.986c-0.302 0.384-0.488 0.685-0.559 0.902-0.076 0.222-0.06 0.442 0.049 0.66 0.105 0.214 0.334 0.541 0.69 0.984v0l2.374 2.763 2.883-2.641c0.782-0.728 1.581-1.566 2.395-2.513v0l-2.725-2.973c-0.343-0.368-0.616-0.576-0.82-0.622-0.208-0.042-0.444 0.06-0.706 0.304v0l-0.6 0.6-0.123-0.041-0.646-0.967c0.145-0.107 0.412-0.337 0.801-0.689 0.388-0.342 0.766-0.685 1.134-1.027v0c0.353-0.329 0.764-0.753 1.232-1.274 0.462-0.515 0.767-0.856 0.914-1.021v0l0.778 0.972c-0.403 0.478-0.618 0.849-0.647 1.111-0.029 0.262 0.106 0.57 0.406 0.922v0c1.02 1.217 2.172 2.566 3.456 4.047 1.284 1.48 2.288 2.609 3.011 3.386v0c0.437 0.469 0.779 0.735 1.025 0.798 0.252 0.058 0.531-0.057 0.84-0.343v0c0.177-0.164 0.331-0.322 0.463-0.474 0.132-0.151 0.221-0.248 0.266-0.29v0l0.139 0.026 0.65 1.048c-0.162 0.15-0.474 0.427-0.937 0.83-0.458 0.398-0.932 0.825-1.422 1.281v0l-2.182 2.074-0.643-1.055c0.379-0.352 0.617-0.663 0.714-0.933 0.097-0.26 0.071-0.546-0.079-0.859-0.16-0.313-0.465-0.712-0.916-1.197v0l-2.297-2.468-2.558 2.339c-0.232 0.216-0.686 0.685-1.36 1.407-0.67 0.727-1.122 1.214-1.355 1.459v0l2.596 2.926c0.437 0.469 0.781 0.738 1.032 0.805 0.256 0.063 0.538-0.049 0.847-0.336v0c0.177-0.164 0.333-0.32 0.47-0.466 0.132-0.151 0.214-0.256 0.246-0.313v0l0.122 0.041 0.666 1.034c-0.116 0.108-0.345 0.307-0.687 0.597-0.347 0.295-0.705 0.614-1.074 0.957v0c-0.545 0.507-1.12 1.085-1.723 1.731-0.608 0.642-0.899 0.992-0.872 1.052z" fill="#fea498" data-fill-palette-color="accent"></path><path d="M90.22 18.8l-0.157-1.261c0.702-0.262 1.143-0.558 1.323-0.888 0.185-0.338 0.194-0.838 0.028-1.5v0l-2.3-9.266c-0.123-0.488-0.262-0.802-0.418-0.94-0.162-0.137-0.418-0.162-0.765-0.074v0l-0.785 0.229-0.088-0.095-0.1-1.159c0.234-0.059 0.695-0.164 1.382-0.315 0.687-0.152 1.429-0.327 2.225-0.528v0c3.25-0.818 5.632-1.51 7.146-2.076v0l0.126 0.118c0.014 0.224 0.05 0.734 0.107 1.53 0.05 0.791 0.158 1.631 0.325 2.521v0l-1.374 0.474c-0.02-0.08-0.043-0.213-0.068-0.399-0.027-0.192-0.065-0.385-0.114-0.58v0c-0.128-0.508-0.291-0.844-0.488-1.007-0.199-0.17-0.535-0.232-1.006-0.184-0.478 0.049-1.282 0.216-2.413 0.5v0c-0.522 0.131-0.876 0.235-1.063 0.31-0.194 0.077-0.304 0.176-0.331 0.297-0.033 0.122-0.023 0.333 0.031 0.632v0l0.875 4.195 2.395-0.57c0.354-0.089 0.863-0.256 1.527-0.502 0.665-0.239 1.102-0.395 1.311-0.468v0l0.148 0.122 0.03 1.603c-0.214 0.054-0.638 0.15-1.271 0.288-0.64 0.14-1.312 0.298-2.014 0.475v0c-0.542 0.136-1.141 0.34-1.798 0.612v0c0.312 1.493 0.617 2.835 0.917 4.025v0c0.113 0.448 0.224 0.751 0.335 0.908 0.111 0.157 0.297 0.235 0.56 0.232 0.256 0 0.668-0.072 1.236-0.215v0c1.264-0.318 2.151-0.605 2.663-0.862 0.52-0.252 0.848-0.587 0.985-1.005 0.13-0.417 0.151-1.08 0.064-1.989v0l1.264-0.446 0.148 0.122c-0.006 0.229 0.02 0.756 0.078 1.581 0.051 0.826 0.145 1.677 0.28 2.553v0l-0.133 0.194c-0.533 0.113-1.634 0.358-3.303 0.735-1.662 0.376-3.008 0.693-4.037 0.952v0c-0.802 0.202-1.536 0.422-2.202 0.66-0.665 0.239-1.092 0.392-1.281 0.461z" fill="#fea498" data-fill-palette-color="accent"></path><path d="M143.135 16.806l0.504-1.122c0.791 0.133 1.364 0.173 1.718 0.12 0.355-0.054 0.615-0.23 0.783-0.53 0.174-0.298 0.361-0.848 0.561-1.651v0l2.414-9.674c-1.241-0.267-2.088-0.404-2.542-0.41-0.452-0.013-0.826 0.135-1.123 0.444-0.291 0.311-0.63 0.944-1.018 1.9v0l-1.387-0.251c0.097-0.246 0.296-0.79 0.599-1.631 0.311-0.846 0.577-1.686 0.799-2.519v0l0.291-0.14 2.019 0.749 7.447 1.858 2.195 0.303 0.181 0.258c-0.194 0.861-0.355 1.72-0.483 2.576-0.137 0.861-0.213 1.411-0.23 1.649v0l-1.367-0.246c0.098-1.049 0.091-1.79-0.022-2.222-0.106-0.431-0.347-0.744-0.725-0.938-0.376-0.201-1.125-0.462-2.246-0.784v0c-0.327 0.913-0.802 2.447-1.425 4.601-0.621 2.148-1.16 4.138-1.618 5.972v0c-0.142 0.569-0.135 0.997 0.021 1.284 0.162 0.289 0.484 0.494 0.966 0.614v0c0.355 0.088 0.645 0.15 0.871 0.185 0.232 0.037 0.375 0.062 0.429 0.075v0l0.07 0.103-0.509 1.185c-0.274-0.068-0.779-0.212-1.513-0.431-0.729-0.21-1.445-0.403-2.147-0.579v0c-0.703-0.175-1.398-0.335-2.088-0.478-0.691-0.137-1.166-0.227-1.425-0.27z" fill="#fea498" data-fill-palette-color="accent"></path><path d="M191.757 41.922l0.026-0.17 0.789-0.752c0.671 0.511 1.157 0.821 1.457 0.929 0.299 0.099 0.54 0.045 0.723-0.162v0c0.215-0.243 0.387-0.546 0.516-0.911v0l1.007-2.216c-0.291-0.285-0.909-0.846-1.855-1.681v0c-0.439-0.388-1.128-0.915-2.068-1.581v0l-2.101 1.111c-0.415 0.25-0.656 0.414-0.724 0.492v0c-0.21 0.238-0.281 0.484-0.211 0.738 0.079 0.254 0.305 0.546 0.676 0.874v0l0.976 0.864-0.02 0.148-0.892 0.743c-0.136-0.148-0.459-0.475-0.969-0.981-0.505-0.502-1.013-0.978-1.524-1.431v0c-0.48-0.425-0.921-0.801-1.322-1.127-0.396-0.323-0.661-0.543-0.796-0.662v0l0.954-0.814c0.372 0.256 0.739 0.372 1.099 0.351 0.361-0.012 0.838-0.156 1.432-0.433v0l11.469-5.833 1.857 1.132 0.141 0.152c-0.055 0.062-0.764 1.556-2.128 4.484-1.365 2.917-2.447 5.375-3.248 7.373v0c-0.238 0.572-0.314 1.048-0.228 1.428 0.077 0.381 0.353 0.819 0.828 1.312v0l-0.036 0.134-0.835 0.711c-0.15-0.132-0.422-0.387-0.816-0.763-0.389-0.372-0.788-0.738-1.196-1.099v0c-0.615-0.544-1.222-1.039-1.821-1.486-0.594-0.452-0.981-0.743-1.16-0.874zM193.655 34.639l1.534 1.357c0.527 0.466 1.104 0.921 1.733 1.366v0l2.492-5.597-0.155-0.137z" fill="#fea498" data-fill-palette-color="accent"></path><path d="M226.379 87.942l8.149-3.075c0.62-0.232 0.836-0.599 0.648-1.103v0l-0.319-0.853 0.089-0.088 1.177-0.219c0.043 0.175 0.143 0.502 0.3 0.981 0.157 0.479 0.327 0.964 0.51 1.455v0c0.154 0.413 0.354 0.869 0.598 1.367 0.238 0.5 0.395 0.821 0.47 0.961v0l-1.207 0.318c-0.274-0.516-0.564-0.849-0.87-1-0.302-0.159-0.674-0.168-1.113-0.026v0l-12.269 4.194-0.719-0.979c1.948-2.766 3.836-5.528 5.662-8.286 1.818-2.762 2.707-4.135 2.668-4.12v0l-0.05-0.136-8.579 3.104c-0.362 0.135-0.587 0.282-0.675 0.439-0.086 0.165-0.079 0.379 0.019 0.644v0l0.439 1.117-0.045 0.116-1.217 0.201c-0.046-0.182-0.152-0.525-0.318-1.03-0.166-0.505-0.351-1.028-0.553-1.571v0c-0.162-0.433-0.357-0.886-0.585-1.36-0.235-0.472-0.387-0.779-0.455-0.923v0l1.203-0.295c0.234 0.45 0.5 0.748 0.798 0.895 0.304 0.144 0.676 0.145 1.116 0.002v0l9.428-3.166c0.465-0.174 0.737-0.43 0.817-0.769 0.08-0.339 0.02-0.913-0.179-1.722v0l0.106-0.16 1.031-0.165c0.036 0.156 0.121 0.452 0.255 0.888 0.124 0.432 0.267 0.864 0.429 1.297v0c0.154 0.413 0.302 0.778 0.441 1.094 0.138 0.309 0.234 0.509 0.29 0.598v0c-1.672 2.361-3.358 4.827-5.055 7.397-1.695 2.576-2.524 3.857-2.485 3.843v0z" fill="#fea498" data-fill-palette-color="accent"></path><path d="M5.804 159.399c-0.519-1.658-0.453-3.121 0.198-4.387 0.649-1.273 1.793-2.165 3.432-2.678v0c1.165-0.365 2.289-0.42 3.373-0.167 1.082 0.247 2.029 0.77 2.843 1.57 0.814 0.8 1.412 1.809 1.793 3.027v0c0.138 0.441 0.253 0.911 0.344 1.41 0.096 0.49 0.155 0.912 0.179 1.266 0.031 0.352 0.054 0.576 0.069 0.672v0l-0.1 0.129c-0.077 0.009-0.262 0.028-0.557 0.055-0.288 0.025-0.664 0.071-1.128 0.136-0.466 0.059-0.953 0.154-1.461 0.284v0l-0.405-1.087c0.039-0.012 0.145-0.034 0.315-0.066 0.162-0.036 0.348-0.087 0.559-0.154v0c1.027-0.321 1.282-1.305 0.767-2.949v0c-0.358-1.145-1.019-1.928-1.981-2.35-0.963-0.421-2.106-0.425-3.428-0.011v0c-1.461 0.457-2.517 1.171-3.167 2.14-0.652 0.963-0.794 2.033-0.426 3.211v0c0.243 0.777 0.647 1.329 1.213 1.659 0.565 0.329 1.328 0.459 2.289 0.389v0l0.422 1.07c-0.186 0.007-0.604 0.055-1.256 0.144-0.654 0.082-1.257 0.184-1.811 0.307v0l-0.218-0.073c-0.053-0.077-0.188-0.266-0.405-0.567-0.215-0.294-0.459-0.705-0.733-1.233-0.278-0.52-0.518-1.102-0.72-1.747z" fill="#fea498" data-fill-palette-color="accent"></path><path d="M34.002 206.124l0.737-0.598c0.486 0.309 0.873 0.457 1.161 0.444 0.287-0.013 0.607-0.204 0.958-0.575v0l5.058-5.309c0.261-0.275 0.404-0.491 0.429-0.648 0.02-0.162-0.07-0.337-0.27-0.527v0l-0.465-0.412 0.012-0.117 0.709-0.539c0.11 0.104 0.313 0.306 0.609 0.606 0.296 0.309 0.599 0.611 0.91 0.904v0c0.255 0.242 0.58 0.516 0.973 0.823 0.389 0.302 0.643 0.5 0.763 0.594v0l-0.708 0.626c-0.313-0.211-0.555-0.336-0.727-0.375-0.172-0.049-0.337-0.025-0.495 0.072-0.159 0.087-0.4 0.277-0.724 0.568v0l-1.996 1.942 2.156 2.085c0.591 0.56 1.269 1.127 2.036 1.701v0l2.149-2.224c0.261-0.275 0.401-0.494 0.422-0.655 0.025-0.157-0.063-0.33-0.263-0.519v0l-0.487-0.434 0.034-0.096 0.702-0.545c0.091 0.105 0.276 0.3 0.557 0.584 0.286 0.28 0.569 0.553 0.849 0.819v0c0.27 0.256 0.612 0.547 1.026 0.872 0.419 0.33 0.695 0.549 0.83 0.658v0l-0.7 0.634c-0.388-0.282-0.682-0.428-0.883-0.437-0.2-0.009-0.431 0.109-0.692 0.355v0c-0.88 0.838-1.852 1.784-2.916 2.837-1.069 1.048-1.886 1.87-2.451 2.466v0c-0.337 0.355-0.522 0.626-0.556 0.812-0.034 0.196 0.067 0.405 0.303 0.629v0c0.135 0.128 0.263 0.239 0.382 0.333 0.124 0.089 0.204 0.151 0.239 0.184v0l-0.012 0.117-0.768 0.541c-0.125-0.119-0.353-0.344-0.684-0.677-0.331-0.333-0.679-0.672-1.044-1.018v0l-1.689-1.571 0.761-0.548c0.29 0.275 0.539 0.444 0.745 0.507 0.211 0.058 0.432 0.02 0.663-0.113 0.231-0.133 0.519-0.382 0.865-0.748v0l1.778-1.877-1.908-1.836c-0.18-0.171-0.562-0.495-1.145-0.972-0.584-0.477-0.975-0.8-1.175-0.97v0l-2.116 2.127c-0.337 0.355-0.524 0.634-0.562 0.835-0.034 0.196 0.065 0.403 0.294 0.621v0c0.135 0.128 0.263 0.239 0.382 0.334 0.125 0.099 0.209 0.155 0.254 0.169v0l-0.027 0.103-0.753 0.554c-0.09-0.085-0.256-0.252-0.496-0.499-0.241-0.247-0.501-0.504-0.782-0.769v0c-0.41-0.389-0.878-0.798-1.401-1.228-0.519-0.435-0.803-0.642-0.851-0.62z" fill="#fea498" data-fill-palette-color="accent"></path><path d="M87.353 237.998l0.361-0.911c0.563 0.08 0.968 0.041 1.215-0.117 0.247-0.158 0.435-0.49 0.565-0.998v0l1.831-7.08c0.094-0.367 0.114-0.626 0.059-0.774-0.061-0.151-0.225-0.26-0.493-0.329v0l-0.606-0.134-0.017-0.1 0.348-0.819c0.18 0.046 0.529 0.142 1.047 0.289 0.516 0.153 1.078 0.308 1.686 0.463v0c2.492 0.637 4.35 1.04 5.573 1.211v0l0.042 0.128c-0.074 0.152-0.236 0.506-0.485 1.061-0.255 0.554-0.493 1.162-0.712 1.825v0l-1.093-0.194c0.014-0.053 0.049-0.151 0.107-0.293 0.049-0.137 0.093-0.279 0.131-0.425v0c0.099-0.387 0.112-0.676 0.039-0.866-0.074-0.183-0.278-0.345-0.612-0.487-0.334-0.142-0.935-0.324-1.803-0.546v0c-0.401-0.102-0.678-0.159-0.832-0.17-0.159-0.019-0.268 0.006-0.329 0.076-0.069 0.075-0.138 0.221-0.208 0.438v0l-0.952 3.141 1.828 0.488c0.267 0.068 0.668 0.142 1.203 0.222 0.535 0.08 0.887 0.134 1.058 0.164v0l0.062 0.133-0.568 1.094c-0.16-0.041-0.483-0.13-0.966-0.269-0.478-0.136-0.987-0.274-1.529-0.412v0c-0.414-0.106-0.891-0.189-1.431-0.248v0c-0.335 1.117-0.619 2.13-0.851 3.038v0c-0.089 0.347-0.124 0.595-0.104 0.742 0.019 0.147 0.117 0.265 0.294 0.353 0.175 0.095 0.476 0.196 0.904 0.306v0c0.969 0.248 1.675 0.382 2.118 0.402 0.438 0.012 0.779-0.096 1.022-0.325 0.237-0.231 0.494-0.667 0.772-1.308v0l1.006 0.16 0.062 0.134c-0.088 0.148-0.263 0.513-0.525 1.093-0.267 0.572-0.515 1.178-0.743 1.818v0l-0.158 0.077c-0.404-0.118-1.233-0.354-2.487-0.711-1.263-0.351-2.288-0.627-3.077-0.829v0c-0.608-0.155-1.179-0.273-1.714-0.352-0.535-0.08-0.881-0.133-1.038-0.159z" fill="#fea498" data-fill-palette-color="accent"></path><path d="M147.726 239.385l-0.067-0.933c0.583-0.198 0.984-0.382 1.205-0.551 0.222-0.163 0.335-0.377 0.339-0.641 0.004-0.264-0.071-0.7-0.226-1.309v0l-1.879-7.398c-0.936 0.266-1.558 0.477-1.866 0.634-0.307 0.163-0.503 0.402-0.587 0.714-0.091 0.315-0.09 0.866 0.004 1.654v0l-1.038 0.327c-0.021-0.194-0.083-0.634-0.185-1.319-0.101-0.679-0.223-1.341-0.366-1.988v0l0.132-0.193 1.637-0.235 5.694-1.446 1.591-0.585 0.219 0.104c0.18 0.652 0.381 1.291 0.604 1.917 0.223 0.626 0.371 1.026 0.443 1.2v0l-1.007 0.32c-0.315-0.738-0.587-1.235-0.816-1.49-0.233-0.247-0.511-0.372-0.831-0.375-0.326 0.005-0.924 0.103-1.793 0.295v0c0.101 0.736 0.333 1.94 0.693 3.612 0.369 1.678 0.732 3.218 1.089 4.622v0c0.109 0.428 0.266 0.711 0.472 0.851 0.213 0.138 0.503 0.16 0.871 0.067v0c0.267-0.068 0.486-0.131 0.656-0.188 0.169-0.064 0.273-0.101 0.313-0.111v0l0.088 0.052 0.089 0.981c-0.214 0.054-0.605 0.139-1.173 0.255-0.573 0.124-1.127 0.254-1.662 0.39v0c-0.541 0.137-1.07 0.282-1.586 0.435-0.515 0.159-0.867 0.27-1.057 0.332z" fill="#fea498" data-fill-palette-color="accent"></path><path d="M202.211 210.588l-0.13-0.05-0.511-0.654c0.451-0.467 0.726-0.811 0.824-1.03 0.108-0.22 0.09-0.408-0.054-0.567v0c-0.167-0.183-0.384-0.34-0.652-0.469v0l-1.611-0.939c-0.234 0.194-0.71 0.619-1.429 1.273v0c-0.326 0.297-0.783 0.774-1.369 1.43v0l0.667 1.701c0.16 0.33 0.268 0.525 0.325 0.586v0c0.163 0.178 0.342 0.253 0.538 0.223 0.202-0.035 0.443-0.18 0.723-0.435v0l0.734-0.669 0.11 0.012 0.492 0.741c-0.127 0.097-0.403 0.316-0.828 0.657-0.421 0.346-0.826 0.696-1.213 1.049v0c-0.362 0.33-0.683 0.632-0.965 0.907-0.281 0.275-0.473 0.459-0.575 0.551v0l-0.534-0.786c0.217-0.263 0.335-0.534 0.352-0.811 0.022-0.272-0.048-0.647-0.211-1.123v0l-3.489-9.204 1.014-1.33 0.128-0.089c0.042 0.046 1.119 0.706 3.232 1.981 2.108 1.279 3.893 2.307 5.355 3.083v0c0.409 0.224 0.761 0.323 1.056 0.298 0.299-0.03 0.656-0.206 1.071-0.529v0l0.093 0.041 0.474 0.688c-0.112 0.102-0.326 0.287-0.641 0.556-0.32 0.273-0.633 0.549-0.939 0.828v0c-0.464 0.423-0.891 0.844-1.282 1.266-0.39 0.411-0.642 0.683-0.755 0.814zM196.815 208.536l1.162-1.059c0.398-0.362 0.792-0.764 1.184-1.205v0l-4.05-2.355-0.122 0.111z" fill="#fea498" data-fill-palette-color="accent"></path><path d="M232.747 156.084l-6.31-2.169c-0.476-0.165-0.781-0.052-0.916 0.339v0l-0.228 0.654-0.105 0.019-0.795-0.452c0.058-0.126 0.157-0.369 0.297-0.729 0.144-0.351 0.282-0.716 0.412-1.094v0c0.111-0.319 0.217-0.688 0.318-1.105 0.105-0.409 0.169-0.675 0.19-0.799v0l0.868 0.4c-0.088 0.444-0.083 0.785 0.017 1.024 0.108 0.235 0.325 0.419 0.651 0.555v0l9.282 3.507-0.061 0.932c-2.492 0.682-4.95 1.391-7.373 2.126-2.425 0.742-3.622 1.118-3.589 1.129v0l-0.038 0.108 6.572 2.359c0.28 0.097 0.485 0.117 0.614 0.06 0.134-0.048 0.235-0.174 0.306-0.376v0l0.286-0.886 0.088-0.035 0.809 0.478c-0.065 0.123-0.17 0.375-0.317 0.755-0.146 0.38-0.292 0.778-0.437 1.195v0c-0.118 0.339-0.222 0.704-0.314 1.095-0.099 0.389-0.161 0.641-0.186 0.756v0l-0.852-0.416c0.079-0.374 0.067-0.677-0.035-0.91-0.108-0.235-0.326-0.416-0.654-0.544v0l-7.106-2.742c-0.365-0.127-0.653-0.106-0.865 0.062-0.209 0.161-0.453 0.525-0.73 1.093v0l-0.138 0.05-0.691-0.404c0.054-0.113 0.147-0.329 0.279-0.647 0.139-0.317 0.268-0.644 0.385-0.983v0c0.111-0.319 0.199-0.606 0.266-0.861 0.073-0.252 0.115-0.416 0.127-0.492v0c2.133-0.573 4.331-1.204 6.592-1.894 2.255-0.692 3.369-1.042 3.343-1.051v0z" fill="#fea498" data-fill-palette-color="accent"></path><path d="M0 121.522c0-3.221 2.611-5.832 5.832-5.832 3.221 0 5.832 2.611 5.832 5.832 0 3.221-2.611 5.832-5.832 5.832-3.221 0-5.832-2.611-5.832-5.832z" fill="#fea498" data-fill-palette-color="accent"></path><path d="M229.312 121.522c0-3.221 2.611-5.832 5.832-5.832 3.221 0 5.832 2.611 5.832 5.832 0 3.221-2.611 5.832-5.832 5.832-3.221 0-5.832-2.611-5.832-5.832z" fill="#fea498" data-fill-palette-color="accent"></path></g><g id="text-1"></g></svg></g></svg></g></svg></g><defs></defs></svg><rect width="395.52" height="141.03289469339353" fill="none" stroke="none" visibility="hidden"></rect></g></svg></g></svg>